<svg width="120" height="134" viewBox="0 0 120 134" fill="none" xmlns="http://www.w3.org/2000/svg">
<path d="M92.8334 51.9872V39.5452H114.728V15.0461H92.8334V0H68.1755V51.9872C68.1755 54.8951 68.4185 57.7452 68.8785 60.5229C60.6785 42.7136 42.6755 30.3497 21.7819 30.3497H0V76.7496H21.7819V54.9443C36.796 54.9443 49.0121 67.1606 49.0121 82.1749C49.0121 97.1891 36.796 109.405 21.7819 109.405V134C50.4039 134 73.6065 110.797 73.6065 82.1749C73.6065 79.2669 73.3634 76.4168 72.9033 73.6391C81.1033 91.4485 99.1064 103.812 120 103.812V79.2177C104.986 79.2177 92.8334 67.0015 92.8334 51.9872Z" fill="#F32B50"/>
</svg>
